<?xml version="1.0" encoding="UTF-8"?> <!-- Generator: Adobe Illustrator 17.0.0, SVG Export Plug-In . SVG Version: 6.00 Build 0) --> <svg xmlns="http://www.w3.org/2000/svg" xmlns:xlink="http://www.w3.org/1999/xlink" id="Layer_1" x="0px" y="0px" width="66.04px" height="64.571px" viewBox="0 0 66.04 64.571" xml:space="preserve"> <g> <linearGradient id="SVGID_1_" gradientUnits="userSpaceOnUse" x1="-202.2071" y1="530.1804" x2="-6.0011" y2="309.4486" gradientTransform="matrix(1 0 0 1 49.89 -312.28)"> <stop offset="0" style="stop-color:#6F5933"></stop> <stop offset="1" style="stop-color:#F2CC82"></stop> </linearGradient> <path fill="url(#SVGID_1_)" d="M13.634,44.391c1.279,0.395,2.751,0.752,4.385,1.067c-0.684-3.798-1.07-8.324-1.07-13.172 c0-5.35,0.471-10.309,1.292-14.328c0.675-3.301,1.587-5.964,2.673-7.683c0.299-0.474,0.61-0.88,0.934-1.204 c6.523-6.522,17.135-6.521,23.656,0l2.95-2.95C44.507,2.173,39.258,0,33.676,0c-5.583,0-10.832,2.174-14.779,6.121 c-1.208,1.208-2.207,2.954-3.023,5.043c-0.892,2.282-1.567,4.976-2.054,7.844c-0.733,4.314-1.044,9.015-1.044,13.278 C12.777,36.164,13.035,40.407,13.634,44.391z"></path> <linearGradient id="SVGID_2_" gradientUnits="userSpaceOnUse" x1="-181.5985" y1="548.4992" x2="14.6075" y2="327.7673" gradientTransform="matrix(1 0 0 1 49.89 -312.28)"> <stop offset="0" style="stop-color:#6F5933"></stop> <stop offset="1" style="stop-color:#F2CC82"></stop> </linearGradient> <path fill="url(#SVGID_2_)" d="M51.451,53.111c0.789-2.212,1.409-4.809,1.881-7.559c0.874-5.099,1.243-10.716,1.244-15.341h-25.33 v4.172h21.133c-0.102,4.357-0.517,8.394-1.18,11.794c-0.606,3.111-1.419,5.686-2.386,7.481c-0.41,0.76-0.847,1.381-1.308,1.842 c-6.522,6.521-17.134,6.522-23.656,0c-0.571-0.571-1.105-1.388-1.596-2.411c-1.682-0.249-3.301-0.545-4.819-0.894 c0.889,2.629,2.03,4.82,3.465,6.255c3.947,3.948,9.196,6.121,14.779,6.121s10.831-2.174,14.778-6.121 C49.649,57.255,50.639,55.386,51.451,53.111z"></path> <linearGradient id="SVGID_3_" gradientUnits="userSpaceOnUse" x1="-193.6761" y1="537.7635" x2="2.53" y2="317.0318" gradientTransform="matrix(1 0 0 1 49.89 -312.28)"> <stop offset="0" style="stop-color:#6F5933"></stop> <stop offset="1" style="stop-color:#F2CC82"></stop> </linearGradient> <path fill="url(#SVGID_3_)" d="M13.334,50.148c2.522,0.724,5.428,1.274,8.503,1.672c4.627,0.599,9.626,0.858,14.243,0.858 c3.081,0,6.332-0.116,9.53-0.371c0.544-1.194,1.032-2.648,1.453-4.311c-3.379,0.329-7.094,0.51-10.982,0.51 c-5.766,0-11.155-0.396-15.623-1.087c-3.312-0.513-6.114-1.187-8.188-1.984c-1.444-0.555-2.539-1.168-3.198-1.828 c-3.159-3.16-4.899-7.36-4.899-11.828s1.74-8.669,4.899-11.829c0.66-0.66,1.754-1.273,3.198-1.828 c0.291-1.647,0.644-3.234,1.065-4.713c-3.157,0.907-5.71,2.087-7.214,3.591C2.173,20.947,0,26.196,0,31.779 S2.174,42.61,6.121,46.557C7.624,48.062,10.177,49.241,13.334,50.148z"></path> <linearGradient id="SVGID_4_" gradientUnits="userSpaceOnUse" x1="-193.6383" y1="537.7972" x2="2.5678" y2="317.0653" gradientTransform="matrix(1 0 0 1 49.89 -312.28)"> <stop offset="0" style="stop-color:#6F5933"></stop> <stop offset="1" style="stop-color:#F2CC82"></stop> </linearGradient> <path fill="url(#SVGID_4_)" d="M36.08,10.879c-4.616,0-9.616,0.259-14.243,0.859c-0.52,1.239-0.983,2.721-1.38,4.401 c4.468-0.691,9.857-1.087,15.623-1.087c11.961,0,22.304,1.701,26.143,4.215c0.339,0.222,0.633,0.45,0.867,0.684l2.95-2.95 c-0.916-0.916-2.225-1.711-3.817-2.398C55.969,11.902,45.265,10.879,36.08,10.879z"></path> <linearGradient id="SVGID_5_" gradientUnits="userSpaceOnUse" x1="-168.3441" y1="560.2808" x2="27.8619" y2="339.549" gradientTransform="matrix(1 0 0 1 49.89 -312.28)"> <stop offset="0" style="stop-color:#6F5933"></stop> <stop offset="1" style="stop-color:#F2CC82"></stop> </linearGradient> <path fill="url(#SVGID_5_)" d="M62.222,44.295c-1.518,0.992-4.051,1.857-7.295,2.541c-0.316,1.57-0.684,3.069-1.11,4.451 c3.207-0.572,6.106-1.339,8.405-2.332c1.593-0.688,2.901-1.482,3.817-2.398l-2.95-2.95C62.855,43.843,62.564,44.071,62.222,44.295z "></path> </g> </svg> 