<svg xmlns="http://www.w3.org/2000/svg" viewBox="0 0 512 512"><defs><style>.cls-1{fill:red;}</style></defs><title>stop</title><g id="Слой_2" data-name="Слой 2"><g id="Capa_1" data-name="Capa 1"><path class="cls-1" d="M256,0C114.84,0,0,114.84,0,256S114.84,512,256,512,512,397.16,512,256,397.16,0,256,0Zm0,448C150.14,448,64,361.86,64,256A189.54,189.54,0,0,1,99.54,144.8L367.2,412.46A189.54,189.54,0,0,1,256,448Zm156.46-80.8L144.8,99.54A189.54,189.54,0,0,1,256,64c105.86,0,192,86.14,192,192A189.54,189.54,0,0,1,412.46,367.2Z"/></g></g></svg>